<svg xmlns="http://www.w3.org/2000/svg" width="543.085" height="600" viewBox="0 0 543.085 600">
  <g id="Group_64" data-name="Group 64" transform="translate(-268.458 -240)">
    <path id="Icon_metro-books" data-name="Icon metro-books" d="M122.244,543.085H17.463C7.859,543.085,0,532.9,0,520.456V22.629C0,10.183,7.859,0,17.463,0h104.78c9.6,0,17.463,10.183,17.463,22.629V520.456c0,12.446-7.859,22.628-17.463,22.628ZM104.78,407.313H34.927v45.257H104.78Zm192.1,135.771H192.1c-9.6,0-17.463-10.183-17.463-22.629V22.629C174.634,10.183,182.492,0,192.1,0h104.78c9.6,0,17.463,10.183,17.463,22.629V520.456c0,12.446-7.858,22.628-17.463,22.628ZM279.414,407.313H209.56v45.257h69.853ZM417.532,508.1,323.959,447c-8.577-5.6-12.058-19.275-7.737-30.39L473.379,12.447C477.7,1.332,488.255-3.179,496.833,2.421l93.573,61.091c8.577,5.6,12.058,19.277,7.737,30.389L440.985,498.068c-4.322,11.115-14.877,15.628-23.453,10.027ZM506.438,22.629c0-12.5-7.819-22.629-17.463-22.629s-17.463,10.131-17.463,22.629,7.819,22.628,17.463,22.628S506.438,35.126,506.438,22.629Z" transform="translate(811.543 240) rotate(90)" fill="#4d847b"/>
  </g>
</svg>
