<svg xmlns="http://www.w3.org/2000/svg" width="948" height="379" viewBox="0 0 948 379">
  <g id="Group_63" data-name="Group 63" transform="translate(-85 -351)">
    <path id="Icon_metro-books" data-name="Icon metro-books" d="M40.117,178.224H5.731C2.579,178.224,0,174.882,0,170.8V7.426C0,3.342,2.579,0,5.731,0H40.117c3.152,0,5.731,3.342,5.731,7.426V170.8c0,4.084-2.579,7.426-5.731,7.426Zm-5.731-44.556H11.462V148.52H34.386V133.668Zm63.04,44.556H63.04c-3.152,0-5.731-3.342-5.731-7.426V7.426C57.31,3.342,59.888,0,63.04,0H97.426c3.152,0,5.731,3.342,5.731,7.426V170.8c0,4.084-2.579,7.426-5.731,7.426ZM91.7,133.668H68.771V148.52H91.7Zm45.326,33.074-30.708-20.049c-2.815-1.837-3.957-6.326-2.539-9.973L155.349,4.085c1.418-3.648,4.882-5.128,7.7-3.29l30.708,20.048c2.815,1.838,3.957,6.326,2.539,9.973L144.718,163.451c-1.418,3.648-4.882,5.129-7.7,3.291ZM166.2,7.426c0-4.1-2.566-7.426-5.731-7.426s-5.731,3.325-5.731,7.426,2.566,7.426,5.731,7.426S166.2,11.527,166.2,7.426Z" transform="translate(455.745 442) rotate(90)" fill="#4d847b"/>
    <text id="R" transform="translate(85 635)" fill="#4d847b" font-size="270" font-family="Poppins-Bold, Poppins" font-weight="700"><tspan x="0" y="0">R</tspan></text>
    <text id="ADS" transform="translate(471 635)" fill="#4d847b" font-size="270" font-family="Poppins-Bold, Poppins" font-weight="700"><tspan x="0" y="0">ADS</tspan></text>
  </g>
</svg>
